<svg width="212" height="212" viewBox="0 0 212 212" fill="none" xmlns="http://www.w3.org/2000/svg">
<rect width="212" height="212" fill="white"/>
<path d="M125.24 152L116.28 142.784L108.6 135.616L89.784 115.648C86.456 112.064 83.64 108.821 81.336 105.92C79.032 102.933 77.1973 100.203 75.832 97.728C74.552 95.168 73.6133 92.7787 73.016 90.56C72.4187 88.3413 72.12 86.2933 72.12 84.416C72.12 79.808 73.3147 75.712 75.704 72.128C78.1787 68.4587 81.5493 65.6 85.816 63.552C90.168 61.4187 95.16 60.352 100.792 60.352C105.144 60.352 109.197 61.0773 112.952 62.528C116.707 63.8933 119.949 65.856 122.68 68.416C125.411 70.976 127.331 73.9627 128.44 77.376L112.312 86.976C110.861 83.4773 109.283 81.088 107.576 79.808C105.869 78.528 103.864 77.888 101.56 77.888C99.6827 77.888 98.104 78.1867 96.824 78.784C95.544 79.3813 94.5627 80.2773 93.88 81.472C93.1973 82.5813 92.856 83.9893 92.856 85.696C92.856 87.3173 93.496 89.3227 94.776 91.712C96.1413 94.016 97.848 96.448 99.896 99.008C101.944 101.483 104.035 103.872 106.168 106.176C108.301 108.395 110.221 110.315 111.928 111.936L121.4 122.304L130.232 130.368L150.584 152H125.24ZM92.856 153.28C86.1147 153.28 80.056 152 74.68 149.44C69.3893 146.88 65.1653 143.381 62.008 138.944C58.936 134.507 57.4 129.557 57.4 124.096C57.4 117.867 59.192 112.277 62.776 107.328C66.4453 102.293 71.8213 98.496 78.904 95.936L91.704 108.352C86.9253 109.376 83.3413 111.083 80.952 113.472C78.5627 115.861 77.368 118.891 77.368 122.56C77.368 125.461 78.0507 127.979 79.416 130.112C80.7813 132.245 82.7867 133.909 85.432 135.104C88.0773 136.213 91.2347 136.768 94.904 136.768C98.3173 136.768 101.475 136.085 104.376 134.72C107.363 133.269 110.008 131.264 112.312 128.704C114.701 126.144 116.621 123.115 118.072 119.616C119.523 116.032 120.504 112.064 121.016 107.712H140.088C139.32 113.173 137.997 118.251 136.12 122.944C134.243 127.552 131.853 131.733 128.952 135.488C126.136 139.243 122.851 142.443 119.096 145.088C115.427 147.733 111.373 149.781 106.936 151.232C102.584 152.597 97.8907 153.28 92.856 153.28Z" fill="black"/>
</svg>
