<svg width="32" height="33" viewBox="0 0 32 33" fill="none" xmlns="http://www.w3.org/2000/svg">
<path fill-rule="evenodd" clip-rule="evenodd" d="M32 32.924H0V29.424H32V32.924Z" fill="black"/>
<path d="M20.72 25.184L19.04 23.456L17.6 22.112L14.072 18.368C13.448 17.696 12.92 17.088 12.488 16.544C12.056 15.984 11.712 15.472 11.456 15.008C11.216 14.528 11.04 14.08 10.928 13.664C10.816 13.248 10.76 12.864 10.76 12.512C10.76 11.648 10.984 10.88 11.432 10.208C11.896 9.52 12.528 8.984 13.328 8.6C14.144 8.2 15.08 8 16.136 8C16.952 8 17.712 8.136 18.416 8.408C19.12 8.664 19.728 9.032 20.24 9.512C20.752 9.992 21.112 10.552 21.32 11.192L18.296 12.992C18.024 12.336 17.728 11.888 17.408 11.648C17.088 11.408 16.712 11.288 16.28 11.288C15.928 11.288 15.632 11.344 15.392 11.456C15.152 11.568 14.968 11.736 14.84 11.96C14.712 12.168 14.648 12.432 14.648 12.752C14.648 13.056 14.768 13.432 15.008 13.88C15.264 14.312 15.584 14.768 15.968 15.248C16.352 15.712 16.744 16.16 17.144 16.592C17.544 17.008 17.904 17.368 18.224 17.672L20 19.616L21.656 21.128L25.472 25.184H20.72ZM14.648 25.424C13.384 25.424 12.248 25.184 11.24 24.704C10.248 24.224 9.456 23.568 8.864 22.736C8.288 21.904 8 20.976 8 19.952C8 18.784 8.336 17.736 9.008 16.808C9.696 15.864 10.704 15.152 12.032 14.672L14.432 17C13.536 17.192 12.864 17.512 12.416 17.96C11.968 18.408 11.744 18.976 11.744 19.664C11.744 20.208 11.872 20.68 12.128 21.08C12.384 21.48 12.76 21.792 13.256 22.016C13.752 22.224 14.344 22.328 15.032 22.328C15.672 22.328 16.264 22.2 16.808 21.944C17.368 21.672 17.864 21.296 18.296 20.816C18.744 20.336 19.104 19.768 19.376 19.112C19.648 18.44 19.832 17.696 19.928 16.88H23.504C23.36 17.904 23.112 18.856 22.76 19.736C22.408 20.6 21.96 21.384 21.416 22.088C20.888 22.792 20.272 23.392 19.568 23.888C18.88 24.384 18.12 24.768 17.288 25.04C16.472 25.296 15.592 25.424 14.648 25.424Z" fill="black"/>
<path fill-rule="evenodd" clip-rule="evenodd" d="M32 4H0V0.5H32V4Z" fill="black"/>
</svg>
