<svg width="37" height="13" viewBox="0 0 37 13" fill="none" xmlns="http://www.w3.org/2000/svg">
<path d="M3.936 12.528C3.2 12.528 2.592 12.384 2.112 12.096C1.632 11.808 1.232 11.424 0.912 10.944C0.592 10.432 0.352 9.856 0.192 9.216C0.0639999 8.576 0 8 0 7.488C0 5.92 0.4 4.48 1.2 3.168C2.032 1.856 3.296 0.799999 4.992 0L5.424 0.864002C4.464 1.28 3.632 1.92 2.928 2.784C2.224 3.648 1.84 4.528 1.776 5.424C1.712 5.904 1.744 6.352 1.872 6.768C2.448 6.224 3.152 5.952 3.984 5.952C4.912 5.952 5.696 6.256 6.336 6.864C6.976 7.44 7.296 8.24 7.296 9.264C7.296 10.224 6.96 11.008 6.288 11.616C5.648 12.224 4.864 12.528 3.936 12.528ZM12.672 12.528C11.936 12.528 11.328 12.384 10.848 12.096C10.368 11.808 9.968 11.424 9.648 10.944C9.328 10.432 9.088 9.856 8.928 9.216C8.8 8.576 8.736 8 8.736 7.488C8.736 5.92 9.136 4.48 9.936 3.168C10.768 1.856 12.032 0.799999 13.728 0L14.16 0.864002C13.2 1.28 12.368 1.92 11.664 2.784C10.96 3.648 10.576 4.528 10.512 5.424C10.448 5.904 10.48 6.352 10.608 6.768C11.184 6.224 11.888 5.952 12.72 5.952C13.648 5.952 14.432 6.256 15.072 6.864C15.712 7.44 16.032 8.24 16.032 9.264C16.032 10.224 15.696 11.008 15.024 11.616C14.384 12.224 13.6 12.528 12.672 12.528Z" fill="black"/>
<path d="M32.7656 0.0960007C33.5016 0.0960007 34.1096 0.24 34.5896 0.528C35.0696 0.816 35.4696 1.2 35.7896 1.68C36.1416 2.192 36.3656 2.768 36.4616 3.408C36.5896 4.048 36.6536 4.624 36.6536 5.136C36.6536 6.704 36.2536 8.144 35.4536 9.456C34.6536 10.768 33.4056 11.824 31.7096 12.624L31.2776 11.76C32.2376 11.344 33.0696 10.704 33.7736 9.84C34.4776 8.976 34.8616 8.096 34.9256 7.2C34.9576 6.72 34.9256 6.272 34.8296 5.856C34.2536 6.4 33.5496 6.672 32.7176 6.672C31.7896 6.672 31.0056 6.384 30.3656 5.808C29.7256 5.232 29.4056 4.432 29.4056 3.408C29.4056 2.416 29.7256 1.616 30.3656 1.008C31.0376 0.400002 31.8376 0.0960007 32.7656 0.0960007ZM24.0296 0.0960007C24.7656 0.0960007 25.3736 0.24 25.8536 0.528C26.3336 0.816 26.7336 1.2 27.0536 1.68C27.4056 2.192 27.6296 2.768 27.7256 3.408C27.8536 4.048 27.9176 4.624 27.9176 5.136C27.9176 6.704 27.5176 8.144 26.7176 9.456C25.9176 10.768 24.6696 11.824 22.9736 12.624L22.5416 11.76C23.5016 11.344 24.3336 10.704 25.0376 9.84C25.7416 8.976 26.1256 8.096 26.1896 7.2C26.2216 6.72 26.1896 6.272 26.0936 5.856C25.5176 6.4 24.8136 6.672 23.9816 6.672C23.0536 6.672 22.2696 6.384 21.6296 5.808C20.9896 5.232 20.6696 4.432 20.6696 3.408C20.6696 2.416 20.9896 1.616 21.6296 1.008C22.3016 0.400002 23.1016 0.0960007 24.0296 0.0960007Z" fill="black"/>
</svg>
